<svg xmlns="http://www.w3.org/2000/svg" width="1024" height="1024" viewBox="0 0 1024 1024">
  <!-- 背景：蓝紫色渐变 + 圆角 -->
  <defs>
    <linearGradient id="bgGradient" x1="0" y1="0" x2="1" y2="1">
      <stop offset="0%" stop-color="#4A90E2"/>
      <stop offset="100%" stop-color="#6A5ACD"/>
    </linearGradient>
  </defs>
  <rect x="0" y="0" width="1024" height="1024" rx="204" ry="204" fill="url(#bgGradient)"/>

  <!-- 剪贴板主体 -->
  <rect x="262" y="240" width="500" height="620" rx="40" ry="40" fill="#FFFFFF" opacity="0.95"/>
  
  <!-- 顶部夹子 -->
  <rect x="412" y="180" width="200" height="80" rx="20" ry="20" fill="#FFFFFF" opacity="0.95"/>

  <!-- 历史记录：三条横线 -->
  <rect x="320" y="360" width="380" height="40" rx="8" fill="#6A5ACD" opacity="0.85"/>
  <rect x="320" y="460" width="380" height="40" rx="8" fill="#6A5ACD" opacity="0.75"/>
  <rect x="320" y="560" width="380" height="40" rx="8" fill="#6A5ACD" opacity="0.65"/>

  <!-- 同步箭头（右下角） -->
  <g transform="translate(700, 740) scale(0.8)">
    <circle cx="100" cy="100" r="100" fill="#FFFFFF" opacity="0.95"/>
    <path d="M60 100 A40 40 0 0 1 140 100 L120 80 M60 100 L80 120"
          stroke="#6A5ACD" stroke-width="12" fill="none" stroke-linecap="round" stroke-linejoin="round"/>
    <path d="M140 100 A40 40 0 0 1 60 100 L80 120 M140 100 L120 80"
          stroke="#6A5ACD" stroke-width="12" fill="none" stroke-linecap="round" stroke-linejoin="round" opacity="0.6"/>
  </g>
</svg>
