<?xml version="1.0" standalone="no"?><!DOCTYPE svg PUBLIC "-//W3C//DTD SVG 1.1//EN" "http://www.w3.org/Graphics/SVG/1.1/DTD/svg11.dtd"><svg t="1698325886078" class="icon" viewBox="0 0 1024 1024" version="1.1" xmlns="http://www.w3.org/2000/svg" p-id="9423" xmlns:xlink="http://www.w3.org/1999/xlink" width="128" height="128"><path d="M640 554.666667H341.333333c-17.066667 0-34.133333-12.8-34.133333-34.133334s12.8-34.133333 34.133333-34.133333h298.666667c17.066667 0 34.133333 12.8 34.133333 34.133333s-17.066667 34.133333-34.133333 34.133334zM529.066667 725.333333H341.333333c-17.066667 0-34.133333-12.8-34.133333-34.133333s12.8-34.133333 34.133333-34.133333h187.733334c17.066667 0 34.133333 12.8 34.133333 34.133333s-17.066667 34.133333-34.133333 34.133333zM597.333333 290.133333h-170.666666c-42.666667 0-119.466667 0-119.466667-119.466666S384 55.466667 426.666667 55.466667h170.666666c42.666667 0 119.466667 0 119.466667 119.466666 0 38.4 0 115.2-119.466667 115.2z m-170.666666-170.666666c-42.666667 0-55.466667 0-55.466667 55.466666S384 226.133333 426.666667 226.133333h170.666666c55.466667 0 55.466667-12.8 55.466667-55.466666 0-55.466667-12.8-55.466667-55.466667-55.466667h-170.666666z" fill="#8a8a8a" p-id="9424"></path><path d="M640 972.8H384c-238.933333 0-290.133333-110.933333-290.133333-290.133333v-256c0-196.266667 72.533333-277.333333 243.2-285.866667 17.066667 0 34.133333 12.8 34.133333 29.866667 0 17.066667-12.8 34.133333-29.866667 34.133333-119.466667 8.533333-183.466667 42.666667-183.466666 221.866667v256c0 157.866667 29.866667 226.133333 226.133333 226.133333h256c192 0 226.133333-64 226.133333-226.133333v-256c0-179.2-59.733333-217.6-183.466666-221.866667-17.066667 0-29.866667-17.066667-29.866667-34.133333s17.066667-29.866667 34.133333-29.866667c174.933333 8.533333 243.2 93.866667 243.2 285.866667v256c0 179.2-51.2 290.133333-290.133333 290.133333z" fill="#8a8a8a" p-id="9425"></path></svg>