<?xml version="1.0" standalone="no"?><!DOCTYPE svg PUBLIC "-//W3C//DTD SVG 1.1//EN" "http://www.w3.org/Graphics/SVG/1.1/DTD/svg11.dtd"><svg t="1698325835421" class="icon" viewBox="0 0 1024 1024" version="1.1" xmlns="http://www.w3.org/2000/svg" p-id="8102" width="128" height="128" data-spm-anchor-id="a313x.search_index.0.i2.71933a81FZtuBa" xmlns:xlink="http://www.w3.org/1999/xlink"><path d="M592.64 122.88L392.533333 91.306667c-166.826667-26.026667-244.053333 30.293333-270.506666 197.12l-31.573334 200.106666c-17.066667 109.226667 0.853333 180.053333 62.72 223.146667 32.426667 23.04 76.8 38.4 134.4 47.36l200.106667 31.573333c166.826667 26.026667 244.053333-30.293333 270.506667-197.12l31.146666-200.106666c5.12-32.853333 7.253333-62.293333 5.546667-88.32-5.546667-106.666667-68.266667-161.28-202.24-182.186667zM351.573333 398.933333c-49.92 0-90.453333-40.533333-90.453333-90.026666 0-49.92 40.533333-90.453333 90.453333-90.453334 49.493333 0 90.026667 40.533333 90.026667 90.453334 0 49.493333-40.533333 90.026667-90.026667 90.026666z" fill="#8a8a8a" p-id="8103"></path><path d="M874.666667 574.72L810.666667 767.146667c-53.333333 160.426667-138.666667 203.093333-299.093334 149.76l-192.426666-64c-60.16-20.053333-103.68-44.8-131.84-75.946667 26.88 10.666667 58.026667 18.773333 93.44 24.32l200.533333 31.573333c27.306667 4.266667 52.906667 6.4 76.8 6.4 140.8 0 216.32-75.946667 242.346667-239.36l31.146666-200.106666c4.266667-24.746667 5.973333-46.506667 5.973334-66.56 64.853333 53.333333 74.24 129.28 37.12 241.493333z" fill="#8a8a8a" p-id="8104"></path></svg>